<?xml version="1.0" encoding="UTF-8"?>
<!DOCTYPE svg PUBLIC "-//W3C//DTD SVG 1.1//EN" "http://www.w3.org/Graphics/SVG/1.1/DTD/svg11.dtd">
<!-- Creator: CorelDRAW -->
<svg xmlns="http://www.w3.org/2000/svg" xml:space="preserve" width="142px" height="40px" version="1.1" shape-rendering="geometricPrecision" text-rendering="geometricPrecision" image-rendering="optimizeQuality" fill-rule="evenodd" clip-rule="evenodd"
viewBox="0 0 142 40"
 xmlns:xlink="http://www.w3.org/1999/xlink"
 xmlns:xodm="http://www.corel.com/coreldraw/odm/2003">
 <g id="Camada_x0020_1">
  <metadata id="CorelCorpID_0Corel-Layer"/>
  <path fill="#FEFEFE" d="M131.26 27.04c-0.45,0.1 -0.59,0.1 -1.15,0.1 -1.3,0 -8.72,0.04 -8.8,-0.03l0 -4.14c0.03,0 0.05,0 0.07,0 2.58,-0.07 5.33,-0.05 7.92,-0.05 0.78,0 1.76,-0.05 2.35,0.32 0.99,0.6 1.33,1.83 0.76,2.84 -0.2,0.34 -0.69,0.86 -1.15,0.96zm6.5 -2.48c0.07,-0.9 -0.53,-2.3 -0.88,-2.96 -0.26,-0.49 -0.86,-1.27 -1.28,-1.64l-0.52 -0.45c0.08,-0.19 0.25,-0.45 0.35,-0.66 0.36,-0.72 0.57,-1.46 0.66,-2.28 0.25,-2.29 -0.56,-4.23 -2.04,-5.76 -0.53,-0.55 -1.49,-1.23 -2.4,-1.58 -1.22,-0.47 -1.98,-0.55 -3.44,-0.55l-8.04 0c-1.28,0 -2.71,-0.06 -3.97,0 -0.05,0.18 -0.05,4.65 -0.02,5.06 0.66,0.04 1.48,0 2.16,0l10.61 -0.01c0.46,0 0.51,-0.01 0.89,0.17 1.28,0.61 1.62,2.34 0.56,3.41 -0.42,0.42 -0.92,0.58 -1.52,0.58 -4.19,0 -8.56,-0.06 -12.7,0 -0.01,0.43 -0.04,14.07 0.02,14.26 1.13,0.06 2.41,0.01 3.55,0.01l7.05 0c1.15,0 2.32,-0.05 3.45,-0.01 2.91,0.1 5.5,-1.52 6.69,-3.77 0.8,-1.5 0.8,-2.25 0.82,-3.82z"/>
  <path fill="#FEFEFE" d="M105.22 19.75c0.57,-0.49 1.06,-0.83 1.61,-1.43 2.44,-2.68 3.47,-5.76 3.06,-9.62l-20.16 0.02 0.01 4.92c0.22,0.07 9.58,0.02 10.69,0.03 1.16,0 2.42,-0.05 3.56,0 -0.07,0.31 -0.74,1.09 -0.93,1.28 -1.18,1.21 -2.54,1.95 -4.45,2.16 -0.68,0.07 -1.53,0.02 -2.23,0.02 -0.79,0 -6.37,-0.04 -6.64,0.02 -0.04,0.35 -0.01,6.96 -0.01,7.52 0,0.67 -0.05,7.37 0.03,7.45 0.07,0.07 0.52,0.04 0.63,0.04 1.31,0 3.26,0.04 4.42,-0.01 0.08,-0.29 0.01,-9.38 0.02,-10.03 0.38,-0.04 2.41,-0.01 2.96,-0.01 1.5,0 1.97,-0.22 2.71,-0.24 0.17,0.16 0.3,0.44 0.44,0.65l1.2 1.92c0.26,0.42 4.79,7.69 4.85,7.72l5.91 -0.01c0,-0.15 -3.77,-6.08 -3.84,-6.2 -0.22,-0.35 -3.8,-6 -3.84,-6.2z"/>
  <path fill="#FEFEFE" d="M67.98 21.06c-0.37,-3.73 2.58,-7.02 6.37,-7.33 3.95,-0.32 7.27,2.71 7.51,6.19 0.07,1.05 -0.07,2.1 -0.42,2.96 -0.43,1.04 -0.67,1.3 -1.32,2.13 -0.39,0.5 -1.34,1.18 -1.93,1.48 -2.65,1.39 -5.88,0.87 -7.88,-0.91 -0.64,-0.57 -1.03,-1.02 -1.54,-1.9 -0.43,-0.72 -0.7,-1.67 -0.79,-2.62zm18.87 0.24c0.22,-2.45 -0.53,-5.03 -1.79,-6.98 -0.38,-0.58 -0.84,-1.21 -1.28,-1.64l-1.15 -1.08c-0.13,-0.12 -0.26,-0.21 -0.41,-0.33 -4.59,-3.53 -11.27,-3.05 -15.33,0.58 -0.97,0.88 -1.84,1.91 -2.59,3.28 -0.81,1.49 -1.13,2.86 -1.31,4.55 -0.18,1.74 0.21,3.61 0.78,5.03 0.55,1.38 1.54,2.95 2.65,3.98 0.14,0.13 0.22,0.24 0.37,0.36l0.81 0.66c3.23,2.49 7.8,3.15 11.67,1.65 2.61,-1.01 5.02,-3.04 6.27,-5.51 0.73,-1.44 1.15,-2.7 1.31,-4.55z"/>
  <path fill="#FEFEFE" d="M51.34 20.48c0.08,-0.16 2.63,-2.61 2.98,-2.94 1.99,-1.93 4,-3.96 5.99,-5.85 0.19,-0.17 2.89,-2.78 2.96,-2.94l-7.2 0.02c-0.08,0.17 -9.61,9.42 -9.9,9.69l-5.61 5.46c-0.15,0.15 -0.21,0.14 -0.2,0.44l0.03 7.79 5.03 0.02 0.01 -5.64c0,-0.32 -0.04,-0.32 0.15,-0.49l1.52 -1.48c0.18,-0.16 0.42,-0.44 0.61,-0.57 0.24,0.18 0.52,0.51 0.75,0.73 0.26,0.24 0.49,0.47 0.74,0.72 1.5,1.47 3,2.89 4.5,4.38 0.66,0.66 1.67,1.57 2.26,2.2 0.18,0.19 0.24,0.14 0.59,0.14l5.25 0c0.46,0 1.03,0.02 1.47,-0.01 -0.01,-0.09 -0.28,-0.3 -0.36,-0.38 -1.87,-1.79 -3.73,-3.67 -5.6,-5.47 -0.5,-0.47 -1.82,-1.72 -2.26,-2.2l-3.71 -3.62z"/>
  <path fill="#FEFEFE" d="M40.36 19.2c0.14,-0.07 0.82,-0.77 0.99,-0.94l4.11 -3.93 -0.03 -5.54 -5.07 -0.03 0 10.44z"/>
  <path fill="#FEFEFE" d="M139.03 9.69c1.17,-0.17 2.15,0.72 2.28,1.71 0.16,1.15 -0.75,2.13 -1.75,2.23 -1.23,0.12 -2.18,-0.7 -2.3,-1.75 -0.13,-1.04 0.61,-2.01 1.77,-2.19zm-2.28 2.18c0.09,1.32 1.29,2.37 2.77,2.27 1.29,-0.08 2.43,-1.28 2.31,-2.68 -0.11,-1.34 -1.26,-2.37 -2.77,-2.28 -1.32,0.08 -2.42,1.26 -2.31,2.69z"/>
  <path fill="#FEFEFE" d="M138.79 10.91c0.32,0 1.03,-0.12 1,0.27 -0.02,0.32 -0.61,0.26 -1,0.23l0 -0.5zm0.99 0.97c0.23,-0.14 0.42,-0.21 0.5,-0.51 0.09,-0.33 -0.03,-0.59 -0.21,-0.75 -0.25,-0.21 -0.43,-0.21 -0.83,-0.21 -1.25,0 -0.96,-0.28 -0.98,2.05 0,0.18 -0.02,0.33 0.11,0.4 0.12,0.08 0.29,0.04 0.36,-0.04 0.12,-0.16 0.03,-0.67 0.06,-0.9 0.19,-0.01 0.32,-0.04 0.43,0.07 0.11,0.11 0.58,0.8 0.67,0.86 0.14,0.1 0.88,0.07 -0.11,-0.97z"/>
  <g id="_2922106863536">
   <path fill="#FEFEFE" d="M23.78 7.06l9.52 0.01c-0.12,0.27 -0.41,0.54 -0.6,0.76l-2 2.32c-0.19,0.22 -0.42,0.52 -0.62,0.75l-3.3 3.83c-1.68,1.86 -3.58,4.21 -5.28,6.16 -0.26,0.29 -0.47,0.49 -0.43,1.02 0.04,0.47 0.33,0.68 0.59,0.86l3.17 2.53c0.41,0.34 1.1,1.1 1.95,0.74 0.67,-0.29 0.85,-1.3 0.21,-1.82l-3.21 -2.58c0.34,-0.51 0.93,-1.1 1.31,-1.58l5.33 -6.19c0.41,-0.52 0.87,-1.06 1.32,-1.55l2.66 -3.1c0.21,-0.27 0.43,-0.5 0.67,-0.77l1.33 -1.55c0.6,-0.66 0.59,-1.43 -0.12,-1.85 -0.46,-0.27 -3.58,-0.14 -4.22,-0.14 -2.73,0 -6.08,-0.06 -8.75,-0.01 -1.08,0.03 -1.15,0.68 -1.59,1.36 -1.38,2.12 -2.08,3.12 -3.59,5.03 -0.23,0.29 -0.44,0.52 -0.66,0.79 -0.63,0.78 -2.71,2.83 -3.69,3.52 -1.08,0.76 -2.24,1.59 -3.92,1.93 -1.64,0.32 -3.62,-0.3 -4.65,-1.06 -4.47,-3.31 -2.99,-9.65 0.94,-10.9 3.46,-1.11 5.67,2.21 6.52,4.63 0.25,0.72 0.36,1.59 1.06,1.81 0.87,0.27 1.58,-0.41 1.43,-1.26 -0.24,-1.36 -1.48,-3.89 -2.38,-4.86 -0.74,-0.79 -1.22,-1.37 -2.38,-1.95 -4.49,-2.25 -9.3,0.94 -10.06,5.86 -0.56,3.63 1.19,6.5 3.16,8.12 2.24,1.84 5.93,2.5 9.03,0.99 0.95,-0.46 2.72,-1.54 3.49,-2.29l1.48 -1.39c0.49,-0.51 0.81,-0.74 1.4,-1.48l1.32 -1.56c1,-1.22 2.91,-3.87 3.56,-5.13z"/>
   <path fill="#FEFEFE" d="M8.24 23.37c2.96,-0.37 5.88,2.1 7.18,3.39l1.68 1.69c0.14,0.13 0.18,0.22 0.31,0.37 1.3,1.41 2.94,3.73 3.95,5.3 1.37,2.14 0.76,1.91 3.48,1.91l8.05 0c1.64,0 4.31,0.44 3.91,-1.33 -0.18,-0.81 -0.9,-0.83 -1.82,-0.83l-10.77 0.01c-0.33,0 -0.37,0.04 -0.54,-0.19l-1.84 -2.82c-0.49,-0.68 -2.83,-3.72 -3.55,-4.39 -0.51,-0.47 -0.85,-0.89 -1.34,-1.33 -2.31,-2.07 -5.23,-4.45 -9.24,-3.89 -6.41,0.89 -9.17,7.91 -6.39,12.7 1.13,1.97 3.42,4.15 6.92,3.73 1.57,-0.19 2.82,-0.92 3.65,-1.72 1.46,-1.39 2.42,-2.93 3.03,-4.91 0.21,-0.7 0.48,-1.45 -0.14,-1.96 -0.68,-0.56 -1.51,-0.07 -1.74,0.53 -0.25,0.67 -0.39,1.28 -0.68,1.91 -3.64,7.87 -11.04,2.85 -9.74,-3.12 0.59,-2.7 2.66,-4.68 5.63,-5.05z"/>
  </g>
 </g>
</svg>
